<svg xmlns="http://www.w3.org/2000/svg" width="59.921" height="61.36" viewBox="0 0 59.921 61.36">
  <path id="Icon_awesome-github" data-name="Icon awesome-github" d="M20.042,49.97c0,.254-.278.457-.628.457-.4.038-.677-.165-.677-.457,0-.254.278-.457.628-.457C19.728,49.475,20.042,49.678,20.042,49.97ZM16.285,49.4c-.085.254.157.546.519.622a.555.555,0,0,0,.749-.254c.072-.254-.157-.546-.519-.66A.608.608,0,0,0,16.285,49.4Zm5.34-.216c-.35.089-.592.33-.556.622.036.254.35.419.713.33s.592-.33.556-.584S21.975,49.145,21.625,49.183ZM29.574.563C12.818.563,0,13.923,0,31.521c0,14.071,8.432,26.112,20.477,30.35a1.555,1.555,0,0,0,2.09-1.535c0-.787-.036-5.126-.036-7.79,0,0-8.457,1.9-10.233-3.781,0,0-1.377-3.692-3.358-4.644,0,0-2.767-1.992.193-1.954A6.331,6.331,0,0,1,13.8,45.44c2.646,4.9,7.079,3.489,8.807,2.652a7.192,7.192,0,0,1,1.933-4.276C17.783,43.03,10.969,42,10.969,29.8a9.867,9.867,0,0,1,2.851-7.473,12.55,12.55,0,0,1,.314-8.615c2.525-.825,8.336,3.426,8.336,3.426a27.225,27.225,0,0,1,15.174,0s5.811-4.263,8.336-3.426a12.544,12.544,0,0,1,.314,8.615c1.933,2.246,3.117,4,3.117,7.473,0,12.244-7.116,13.221-13.869,14.02,1.111,1,2.054,2.906,2.054,5.887,0,4.276-.036,9.567-.036,10.607a1.559,1.559,0,0,0,2.09,1.535c12.081-4.212,20.272-16.253,20.272-30.325C59.921,13.923,46.33.563,29.574.563ZM11.743,44.324c-.157.127-.121.419.085.66.193.2.471.292.628.127.157-.127.121-.419-.085-.66C12.178,44.248,11.9,44.159,11.743,44.324Zm-1.3-1.028c-.085.165.036.368.278.495a.349.349,0,0,0,.519-.089c.085-.165-.036-.368-.278-.495C10.716,43.131,10.522,43.169,10.438,43.3Zm3.914,4.517c-.193.165-.121.546.157.787.278.292.628.33.785.127.157-.165.085-.546-.157-.787C14.872,47.648,14.509,47.61,14.352,47.813Zm-1.377-1.865c-.193.127-.193.457,0,.749s.519.419.677.292a.6.6,0,0,0,0-.787C13.482,45.91,13.168,45.783,12.975,45.948Z" transform="translate(0 -0.563)" fill="#24292e"/>
</svg>
